<?xml version="1.0" encoding="UTF-8" standalone="no"?>
<!-- Created with Inkscape (http://www.inkscape.org/) -->

<svg
   xmlns:dc="http://purl.org/dc/elements/1.1/"
   xmlns:cc="http://creativecommons.org/ns#"
   xmlns:rdf="http://www.w3.org/1999/02/22-rdf-syntax-ns#"
   xmlns:svg="http://www.w3.org/2000/svg"
   xmlns="http://www.w3.org/2000/svg"
   xmlns:sodipodi="http://sodipodi.sourceforge.net/DTD/sodipodi-0.dtd"
   xmlns:inkscape="http://www.inkscape.org/namespaces/inkscape"
   width="50mm"
   height="50mm"
   viewBox="0 0 177.16535 177.16535"
   id="svg2"
   version="1.1"
   inkscape:version="0.91 r13725"
   sodipodi:docname="8.svg">
  <defs
     id="defs4" />
  <sodipodi:namedview
     id="base"
     pagecolor="#ffffff"
     bordercolor="#666666"
     borderopacity="1.0"
     inkscape:pageopacity="0.0"
     inkscape:pageshadow="2"
     inkscape:zoom="2"
     inkscape:cx="64.631837"
     inkscape:cy="134.04884"
     inkscape:document-units="px"
     inkscape:current-layer="layer1"
     showgrid="false"
     inkscape:window-width="1255"
     inkscape:window-height="776"
     inkscape:window-x="25"
     inkscape:window-y="0"
     inkscape:window-maximized="1" />
  <metadata
     id="metadata7">
    <rdf:RDF>
      <cc:Work
         rdf:about="">
        <dc:format>image/svg+xml</dc:format>
        <dc:type
           rdf:resource="http://purl.org/dc/dcmitype/StillImage" />
        <dc:title></dc:title>
      </cc:Work>
    </rdf:RDF>
  </metadata>
  <g
     inkscape:label="Capa 1"
     inkscape:groupmode="layer"
     id="layer1"
     transform="translate(0,-875.19685)">
    <path
       style="fill:#ff0000;fill-rule:evenodd;stroke:none;stroke-width:1px;stroke-linecap:butt;stroke-linejoin:miter;stroke-opacity:1"
       d="m -137.1787,857.90784 c -16.17988,-19.73 -55.41514,-18.32832 -50.91169,24.74874 2.45502,23.48307 10.18046,30.2794 31.8198,35.35534 19.09189,4.4784 19.09189,19.799 19.09189,19.799 20.40988,-14.3105 42.341912,-26.94374 47.376144,-52.32591 9.73982,-49.10734 -31.219244,-46.63898 -46.669034,-27.57717"
       id="path4157"
       inkscape:connector-curvature="0"
       sodipodi:nodetypes="csscsc" />
    <path
       style="fill:#000000;fill-rule:evenodd;stroke:#000000;stroke-width:1.32290757px;stroke-linecap:butt;stroke-linejoin:miter;stroke-opacity:1"
       d="m -131.40078,1090.1988 c 19.79746,27.944 69.170213,27.1974 64.701723,-32.8681 -2.43598,-32.7442 -11.96145,-42.4359 -39.029773,-50.1611 -23.88174,-6.8157 -23.45706,-28.12925 -23.45706,-28.12925 -26.0598,19.28234 -53.98704,36.18475 -61.0206,71.34115 -13.60795,68.0178 37.96185,65.8401 57.9166,39.7956 l -9.13145,39.9669 19.09188,-0.7071 -9.96043,-39.2598"
       id="path4157-7"
       inkscape:connector-curvature="0"
       sodipodi:nodetypes="csscsc" />
    <g
       id="g4281"
       transform="translate(-175.96445,-13.42462)">
      <g
         transform="matrix(0.9396957,0,0,0.9291255,0.28362277,73.312259)"
         id="g4273">
        <path
           style="fill:#000000;fill-rule:evenodd;stroke:#000000;stroke-width:1px;stroke-linecap:butt;stroke-linejoin:miter;stroke-opacity:1"
           d="m 92.984542,969.98427 c -6.315329,15.96267 -4.166456,28.58928 3.18198,42.77993 2.018724,-1.4863 3.806463,-3.6656 6.717518,-2.4749 -11.919823,-17.44192 -11.191442,-23.21662 -9.899498,-40.30503 z"
           id="path4265"
           inkscape:connector-curvature="0"
           sodipodi:nodetypes="cccc" />
        <path
           style="opacity:1;fill:#000000;fill-opacity:1;stroke:#000000;stroke-width:0.35355338;stroke-opacity:1"
           d="m 39.211348,158.85615 c -6.770102,-0.94656 -12.082634,-4.72873 -14.998561,-10.67799 -1.966938,-4.01308 -2.608052,-6.76647 -2.61777,-11.24253 -0.0095,-4.36152 0.720171,-7.81419 2.45574,-11.62059 1.470414,-3.22486 1.351822,-4.02475 -0.68718,-4.63491 C 15.836348,118.42763 8.3289472,111.30181 5.7241872,103.9373 4.6231044,100.82418 4.6317671,95.465868 5.7422096,92.789599 8.1242829,87.048581 13.504856,82.461933 21.545388,79.31824 34.416921,74.285721 46.5943,73.757783 58.664422,77.708983 c 6.72729,2.202203 18.232561,8.255449 30.950456,16.283904 l 1.471616,0.928991 -1.719164,1.171489 c -4.786363,3.261565 -7.852431,8.675943 -8.436126,14.897383 -0.139127,1.48291 -0.01245,4.22906 0.324296,7.02977 0.691809,5.7539 0.703653,11.97804 0.02892,15.2028 -1.721275,8.22663 -8.014323,14.57387 -20.506326,20.68291 -2.722362,1.33134 -5.961855,2.75693 -7.198874,3.16798 -4.867115,1.61732 -10.52578,2.31912 -14.367883,1.78194 l 1e-5,0 z"
           id="path4267"
           inkscape:connector-curvature="0"
           transform="translate(0,875.19685)" />
        <path
           style="opacity:1;fill:#000000;fill-opacity:1;stroke:#000000;stroke-width:0.35355338;stroke-opacity:1"
           d="M 92.938439,91.083328 C 91.990718,86.682239 90.297066,83.50372 87.314804,80.529307 84.596817,77.818475 80.808381,75.844841 75.52254,74.385974 69.709925,72.781722 67.521917,71.98559 63.960086,70.178847 59.552579,67.943138 55.987074,64.399784 53.933489,60.214543 49.421347,51.018721 48.195535,33.668797 51.399935,24.355047 c 2.2771,-6.618504 6.704941,-11.291252 12.642802,-13.34208 2.043821,-0.705898 3.061609,-0.823802 6.988417,-0.809562 4.072508,0.01477 4.918462,0.127787 7.424621,0.991923 4.311285,1.486553 7.726683,3.591608 10.935767,6.740176 1.569048,1.539461 3.12975,2.812253 3.468228,2.828427 0.338478,0.01618 2.013348,-1.322933 3.721938,-2.975795 5.339732,-5.165569 11.049222,-7.749759 17.786882,-8.0505619 5.47161,-0.2442807 9.37801,1.0437399 12.81092,4.2240229 4.49367,4.162981 7.07551,12.863402 6.43382,21.680985 -0.70389,9.672252 -2.20405,15.85863 -5.40128,22.273864 -5.15398,10.341458 -13.33956,18.430763 -33.215584,32.824922 l -1.844085,1.335484 -0.213942,-0.993524 z"
           id="path4269"
           inkscape:connector-curvature="0"
           transform="translate(0,875.19685)" />
        <path
           style="opacity:1;fill:#000000;fill-opacity:1;stroke:#000000;stroke-width:0.35355338;stroke-opacity:1"
           d="m 140.89789,156.18851 c -3.63646,-0.78892 -5.59543,-1.51315 -10.46977,-3.87066 -14.2921,-6.91246 -22.10807,-15.59998 -28.29895,-31.45454 -0.83832,-2.1469 -2.07684,-5.73309 -2.752264,-7.96931 -1.63849,-5.42476 -4.926628,-17.706234 -4.776839,-17.841901 0.06554,-0.05936 1.147588,0.06029 2.40455,0.265884 5.119183,0.837329 11.513393,-1.244704 15.769833,-5.134852 1.10614,-1.010944 3.17511,-3.375046 4.59773,-5.253561 6.76164,-8.928524 11.36553,-12.711244 17.34962,-14.255085 7.11955,-1.83678 20.64824,0.573736 30.70811,5.471513 10.21523,4.973415 15.41268,12.470973 14.93538,21.544962 -0.30049,5.71265 -2.42667,10.23817 -6.98043,14.85769 -3.10066,3.14543 -6.13519,5.19812 -9.74612,6.59268 -2.8339,1.09447 -3.43758,1.92065 -2.47595,3.38856 0.77,1.17538 2.28312,5.3529 2.89591,7.99521 0.70356,3.03367 0.70025,9.11178 -0.007,12.15006 -1.62998,7.00608 -6.48599,12.26876 -12.62705,13.6845 -2.18064,0.50272 -7.84551,0.41061 -10.52714,-0.17115 l -1e-5,0 z"
           id="path4271"
           inkscape:connector-curvature="0"
           transform="translate(0,875.19685)" />
      </g>
      <ellipse
         ry="1.9445436"
         rx="1.4142135"
         cy="973.69659"
         cx="87.681244"
         id="path4279"
         style="opacity:1;fill:#000000;fill-opacity:1;stroke:#000000;stroke-opacity:1" />
    </g>
    <path
       sodipodi:type="star"
       style="opacity:1;fill:#ff0000;fill-opacity:1;stroke:none;stroke-opacity:1"
       id="path4308"
       sodipodi:sides="4"
       sodipodi:cx="101.99999"
       sodipodi:cy="964.36218"
       sodipodi:r1="74.108032"
       sodipodi:r2="52.40229"
       sodipodi:arg1="1.6247978"
       sodipodi:arg2="2.410196"
       inkscape:flatsided="true"
       inkscape:rounded="0"
       inkscape:randomized="0"
       d="m 97.999994,1038.3622 -70.000005,-78.00002 78.000001,-70 70.00001,78 z"
       transform="matrix(0.7897246,-0.07335087,0.0580224,0.99835547,-215.00651,72.567702)" />
    <text
       xml:space="preserve"
       style="font-style:normal;font-weight:normal;font-size:179.99998474px;line-height:125%;font-family:sans-serif;letter-spacing:0px;word-spacing:0px;fill:#000080;fill-opacity:1;stroke:none;stroke-width:1px;stroke-linecap:butt;stroke-linejoin:miter;stroke-opacity:1"
       x="28.000002"
       y="1028.3622"
       id="text4329"
       sodipodi:linespacing="125%"><tspan
         sodipodi:role="line"
         id="tspan4331"
         x="28.000002"
         y="1028.3622">8</tspan></text>
  </g>
</svg>
